# xmcd
#
# Track frame offsets:
# 150
# 20720
# 37187
# 52237
# 67425
# 84050
# 106187
# 120500
# 138610
# 157655
# 186862
# 203105
# 222917
# 239215
# 275435
# 294450
#
# Disc length: 4217 seconds
#
#
# Revision: 2
# Processed by: cddbd v1.5.1PL2 Copyright (c) Steve Scherf et al.
# Submitted via: FreeRIP 2.944 
#
DISCID=f8107710
DTITLE=Alabama - Alabama - Their Finest Collection
DYEAR=1900
DGENRE=
TTITLE0=The Closer You Get
TTITLE1=When We Make Love
TTITLE2=Love In the First Degree
TTITLE3=40 Hour Week
TTITLE4=Jukebox in my Mind
TTITLE5=Pass It On Down
TTITLE6=Southern Star
TTITLE7=Food On the Table
TTITLE8=Mountain Music
TTITLE9=My Home's in Alabama
TTITLE10=Close Enough To Perfect
TTITLE11=Roll On (Eighteen Wheeler)
TTITLE12=Feels So Right
TTITLE13=Tennessee River
TTITLE14=Why Lady, Why
TTITLE15=Take Me Down
EXTD=
EXTT0=
EXTT1=
EXTT2=
EXTT3=
EXTT4=
EXTT5=
EXTT6=
EXTT7=
EXTT8=
EXTT9=
EXTT10=
EXTT11=
EXTT12=
EXTT13=
EXTT14=
EXTT15=
PLAYORDER=
